<svg xmlns="http://www.w3.org/2000/svg" width="1000" height="550" viewBox="0 0 1000 550"><g stroke="#10283d" stroke-width="9" stroke-linejoin="round"><path d="M71 95 Q497 197 932 92 L854 442 Q511 571 146 445Z" fill="#926344"/><path d="M72 102 L155 132 211 456 146 440Z M249 151 L327 165 353 495 273 479Z M443 179 L508 184 506 514 435 510Z M642 170 L721 155 683 494 612 508Z M841 129 L925 105 855 441 770 473Z" fill="#ad815a" stroke-width="3"/><path d="M103 237 Q498 372 899 235 L885 280 Q491 423 111 284Z M142 421 Q497 552 864 417 L854 451 Q499 585 149 450Z" fill="#23465e"/><path d="M126 259 Q498 399 875 262" fill="none" stroke="#eee4c5" stroke-width="7"/><path d="M182 200 Q207 259 219 322 M245 344 l17 71 M384 220 Q365 332 394 466 M551 242 Q582 276 557 367 M593 390 l-7 83 M760 192 Q730 272 750 324 M807 325 l-22 64" fill="none" stroke="#513f36" stroke-width="5"/><path d="M341 275 q35 -39 47 7 q-10 37-36 10 q-22-24-1-38 M660 410 q-28-35-35-1 q12 30 28 8" fill="none" stroke="#674735" stroke-width="5"/><path d="M67 140 Q-14 173 68 254 M936 141 Q1020 168 923 260" fill="none" stroke="#10283d" stroke-width="17"/><path d="M186 172 Q224 259 235 327 M313 195 l19 98 M421 220 l-2 70 M623 218 Q612 272 615 315 M815 178 l-18 82 M278 370 l15 54 M527 418 l-2 55 M733 342 l-10 49" fill="none" stroke="#d5af7c" stroke-width="4"/><path d="M368 407 l3 19 M477 271 l-2 16 M682 289 l-3 17 M850 319 l-5 16" fill="none" stroke="#eee4c5" stroke-width="3"/><path d="M362 317 l4 2 M588 328 l3 0 M775 287 l3 -1 M216 474 l3 0 M507 525 l4 0 M803 478 l3 -1" stroke="#eee4c5" stroke-width="11"/></g></svg>